<?xml version="1.0" standalone="no"?>
<!DOCTYPE svg PUBLIC "-//W3C//DTD SVG 20010904//EN"
 "http://www.w3.org/TR/2001/REC-SVG-20010904/DTD/svg10.dtd">
<svg version="1.0" xmlns="http://www.w3.org/2000/svg"
 width="400.000000pt" height="400.000000pt" viewBox="0 0 400.000000 400.000000"
 preserveAspectRatio="xMidYMid meet">
<metadata>
Created by potrace 1.14, written by Peter Selinger 2001-2017
</metadata>
<g transform="translate(0.000000,400.000000) scale(0.100000,-0.100000)"
fill="#000000" stroke="none">
<path d="M1130 2340 l0 -270 65 0 65 0 0 63 c1 177 20 239 72 245 50 6 58 -16
58 -169 l0 -139 70 0 70 0 0 145 c0 216 -20 250 -147 250 -71 0 -76 -2 -100
-30 -13 -16 -23 -23 -22 -15 1 8 1 54 0 103 l-1 87 -65 0 -65 0 0 -270z"/>
<path d="M830 2579 c-53 -16 -91 -48 -112 -95 -16 -37 -17 -49 -7 -89 7 -28
22 -54 40 -69 27 -23 125 -66 152 -66 15 -1 67 -46 67 -58 0 -19 -38 -42 -68
-42 -31 0 -54 16 -72 51 -9 16 -22 19 -75 19 -59 0 -65 -2 -65 -21 0 -38 32
-90 73 -117 33 -22 53 -27 125 -30 76 -3 93 0 132 20 65 34 93 79 88 146 -6
74 -48 115 -143 144 -103 30 -141 59 -96 71 11 2 21 14 23 26 3 18 6 19 28 8
14 -7 29 -22 35 -35 9 -20 17 -22 77 -22 76 0 81 6 52 63 -22 43 -43 66 -76
83 -37 19 -135 26 -178 13z"/>
<path d="M1670 2455 c-46 -21 -78 -52 -102 -99 -31 -60 -23 -170 16 -221 88
-116 306 -93 355 38 l11 27 -66 0 c-59 0 -68 -3 -86 -25 -33 -42 -96 -24 -113
33 l-6 22 134 0 c151 0 153 1 141 69 -10 56 -40 107 -80 138 -30 23 -49 28
-103 30 -44 2 -78 -2 -101 -12z m124 -97 c9 -12 16 -26 16 -30 0 -5 -27 -8
-60 -8 -33 0 -60 3 -60 8 0 23 34 52 60 52 18 0 34 -8 44 -22z"/>
<path d="M2170 2463 c-8 -3 -25 -15 -37 -26 l-23 -20 0 21 c0 20 -5 22 -65 22
l-65 0 0 -270 0 -270 65 0 65 0 0 98 0 97 20 -25 c17 -23 26 -25 93 -25 65 0
78 3 110 28 118 89 106 311 -19 363 -33 14 -115 18 -144 7z m78 -108 c58 -73
22 -205 -55 -205 -12 0 -35 11 -50 24 -26 22 -28 30 -27 90 0 55 4 70 24 91
32 34 81 34 108 0z"/>
<path d="M2601 2444 c-30 -25 -31 -25 -31 -5 0 19 -6 21 -64 21 l-64 0 -7 -97
c-4 -54 -5 -163 -2 -243 4 -80 7 -157 7 -172 0 -28 1 -28 65 -28 l65 0 0 96
c0 95 0 96 19 73 14 -18 31 -23 78 -27 95 -7 163 39 195 129 l11 31 13 -37
c48 -142 278 -171 361 -46 36 53 31 61 -37 61 -50 0 -63 -4 -84 -25 -32 -32
-60 -32 -91 0 -50 49 -39 55 111 55 l136 0 -4 59 c-9 120 -89 187 -213 179
-48 -3 -72 -10 -102 -31 -41 -28 -83 -91 -83 -123 -1 -11 -9 5 -19 34 -31 90
-77 122 -175 122 -44 0 -60 -5 -85 -26z m84 -70 c39 -15 59 -121 34 -178 -7
-13 -25 -30 -42 -37 -55 -23 -107 26 -107 103 0 90 48 137 115 112z m435 -14
c32 -32 24 -40 -40 -40 -64 0 -73 9 -43 42 21 24 58 23 83 -2z"/>
<path d="M3270 2455 c0 -3 31 -86 70 -185 38 -98 72 -190 76 -204 9 -37 -11
-56 -57 -56 l-39 0 0 -45 c0 -39 3 -45 25 -51 14 -3 47 -3 73 1 76 11 108 54
182 242 33 87 74 191 90 231 l29 72 -74 0 -74 0 -15 -52 c-8 -29 -25 -88 -37
-131 -12 -42 -25 -75 -28 -72 -3 3 -21 61 -41 128 l-36 122 -72 3 c-40 2 -72
0 -72 -3z"/>
<path d="M1317 1932 c-37 -41 -6 -112 48 -112 39 0 79 44 70 78 -3 15 -13 33
-22 40 -25 18 -77 15 -96 -6z"/>
<path d="M2100 1905 c-131 -42 -199 -190 -156 -338 31 -106 110 -166 227 -175
114 -8 208 41 256 131 25 49 30 177 8 233 -23 61 -70 113 -122 136 -58 25
-156 32 -213 13z m140 -98 c47 -24 70 -73 70 -149 0 -114 -40 -168 -124 -168
-45 0 -92 39 -106 88 -41 151 51 284 160 229z"/>
<path d="M3550 1753 c2 -207 0 -203 60 -203 45 0 48 1 54 31 3 17 6 98 6 180
l0 149 -60 0 -61 0 1 -157z"/>
<path d="M3307 1799 c-27 -4 -63 -19 -81 -33 -36 -27 -46 -25 -46 11 0 19 -5
23 -31 23 -40 0 -65 -14 -83 -48 l-15 -27 -1 33 0 32 -70 0 -70 0 0 -195 0
-195 70 0 70 0 1 98 c0 146 24 191 102 192 21 0 27 -5 27 -21 0 -53 35 -84
134 -119 55 -19 72 -30 74 -46 6 -40 -57 -38 -79 2 -11 21 -18 25 -42 20 -16
-3 -45 -6 -63 -6 -41 0 -45 -23 -12 -65 69 -88 276 -86 322 4 20 38 20 90 0
119 -17 24 -72 55 -119 66 -62 15 -97 56 -59 70 9 3 24 -4 38 -19 20 -21 32
-25 85 -25 68 0 75 9 45 58 -35 59 -106 84 -197 71z"/>
<path d="M1313 1793 c-10 -3 -13 -53 -13 -199 l0 -194 70 0 70 0 0 194 c0 192
0 194 -22 200 -27 7 -88 7 -105 -1z"/>
<path d="M1544 1786 c-47 -21 -74 -62 -74 -112 0 -62 28 -89 125 -122 64 -22
80 -31 80 -47 0 -30 -59 -34 -77 -6 -11 18 -23 21 -80 21 l-68 0 11 -27 c15
-42 58 -82 98 -93 104 -29 215 1 246 66 36 77 -6 139 -121 176 -56 19 -70 27
-72 46 -5 32 26 41 49 13 16 -19 26 -22 83 -19 l66 3 -17 34 c-29 57 -64 75
-146 78 -46 2 -83 -2 -103 -11z"/>
<path d="M2470 1638 c0 -170 5 -189 60 -226 30 -20 44 -23 94 -20 49 4 63 9
83 32 l23 27 0 -25 c0 -25 2 -26 70 -26 l70 0 0 195 0 195 -65 0 c-64 0 -65 0
-66 -27 -1 -16 -2 -39 -3 -53 -1 -14 -3 -62 -4 -107 -2 -68 -6 -87 -22 -103
-26 -26 -62 -25 -86 1 -16 17 -19 41 -22 155 l-4 134 -64 0 -64 0 0 -152z"/>
<path d="M3566 1505 c-26 -27 -29 -56 -8 -84 27 -36 77 -36 104 0 32 43 3 99
-52 99 -16 0 -35 -7 -44 -15z"/>
</g>
</svg>
